<svg xmlns="http://www.w3.org/2000/svg" viewBox="0 0 800 600" width="800" height="600">
  <defs>
    <linearGradient id="bgGrad" x1="0%" y1="0%" x2="100%" y2="100%">
      <stop offset="0%" style="stop-color:#0A1628;stop-opacity:1"/>
      <stop offset="50%" style="stop-color:#0f1f35;stop-opacity:1"/>
      <stop offset="100%" style="stop-color:#0A1628;stop-opacity:1"/>
    </linearGradient>
    <linearGradient id="gold" x1="0%" y1="0%" x2="100%" y2="100%">
      <stop offset="0%" style="stop-color:#D4AF37;stop-opacity:1"/>
      <stop offset="100%" style="stop-color:#F0D060;stop-opacity:1"/>
    </linearGradient>
    <linearGradient id="goldFade" x1="0%" y1="0%" x2="100%" y2="100%">
      <stop offset="0%" style="stop-color:#D4AF37;stop-opacity:0.15"/>
      <stop offset="100%" style="stop-color:#D4AF37;stop-opacity:0"/>
    </linearGradient>
    <linearGradient id="blueAccent" x1="0%" y1="0%" x2="100%" y2="0%">
      <stop offset="0%" style="stop-color:#3B82F6;stop-opacity:0.6"/>
      <stop offset="100%" style="stop-color:#3B82F6;stop-opacity:0"/>
    </linearGradient>
    <filter id="glow">
      <feGaussianBlur stdDeviation="3" result="blur"/>
      <feMerge>
        <feMergeNode in="blur"/>
        <feMergeNode in="SourceGraphic"/>
      </feMerge>
    </filter>
    <filter id="softGlow">
      <feGaussianBlur stdDeviation="8" result="blur"/>
      <feMerge>
        <feMergeNode in="blur"/>
        <feMergeNode in="SourceGraphic"/>
      </feMerge>
    </filter>
    <clipPath id="roundedRect">
      <rect width="800" height="600" rx="16"/>
    </clipPath>
  </defs>

  <g clip-path="url(#roundedRect)">
    <rect width="800" height="600" fill="url(#bgGrad)"/>

    <circle cx="150" cy="120" r="200" fill="url(#goldFade)" opacity="0.5"/>
    <circle cx="650" cy="480" r="180" fill="url(#goldFade)" opacity="0.3"/>
    <circle cx="700" cy="150" r="150" fill="#3B82F6" opacity="0.03"/>

    <line x1="80" y1="80" x2="200" y2="150" stroke="#D4AF37" stroke-width="0.5" opacity="0.08"/>
    <line x1="200" y1="150" x2="350" y2="100" stroke="#D4AF37" stroke-width="0.5" opacity="0.06"/>
    <line x1="350" y1="100" x2="500" y2="180" stroke="#D4AF37" stroke-width="0.5" opacity="0.07"/>
    <line x1="500" y1="180" x2="650" y2="120" stroke="#D4AF37" stroke-width="0.5" opacity="0.05"/>
    <line x1="650" y1="120" x2="750" y2="200" stroke="#D4AF37" stroke-width="0.5" opacity="0.06"/>
    <line x1="100" y1="400" x2="250" y2="450" stroke="#D4AF37" stroke-width="0.5" opacity="0.06"/>
    <line x1="250" y1="450" x2="400" y2="500" stroke="#D4AF37" stroke-width="0.5" opacity="0.05"/>
    <line x1="550" y1="420" x2="700" y2="500" stroke="#D4AF37" stroke-width="0.5" opacity="0.07"/>
    <line x1="200" y1="150" x2="250" y2="450" stroke="#D4AF37" stroke-width="0.3" opacity="0.04"/>
    <line x1="500" y1="180" x2="550" y2="420" stroke="#D4AF37" stroke-width="0.3" opacity="0.04"/>

    <circle cx="80" cy="80" r="2" fill="#D4AF37" opacity="0.15"/>
    <circle cx="200" cy="150" r="2.5" fill="#D4AF37" opacity="0.12"/>
    <circle cx="350" cy="100" r="1.5" fill="#D4AF37" opacity="0.1"/>
    <circle cx="500" cy="180" r="2" fill="#D4AF37" opacity="0.12"/>
    <circle cx="650" cy="120" r="1.5" fill="#D4AF37" opacity="0.1"/>
    <circle cx="750" cy="200" r="2" fill="#D4AF37" opacity="0.08"/>
    <circle cx="100" cy="400" r="1.5" fill="#D4AF37" opacity="0.1"/>
    <circle cx="250" cy="450" r="2" fill="#D4AF37" opacity="0.12"/>
    <circle cx="400" cy="500" r="1.5" fill="#D4AF37" opacity="0.08"/>
    <circle cx="550" cy="420" r="2" fill="#D4AF37" opacity="0.1"/>
    <circle cx="700" cy="500" r="2.5" fill="#D4AF37" opacity="0.12"/>

    <g transform="translate(180, 220)" opacity="0.9">
      <circle cx="0" cy="0" r="28" fill="#1a2d4a" stroke="#D4AF37" stroke-width="1" opacity="0.8"/>
      <circle cx="0" cy="0" r="28" fill="none" stroke="#D4AF37" stroke-width="0.5" opacity="0.3"/>
      <path d="M-35,40 Q-38,60 -30,100 L30,100 Q38,60 35,40 Q20,30 0,28 Q-20,30 -35,40Z" fill="#1a2d4a" stroke="#D4AF37" stroke-width="0.8" opacity="0.7"/>
      <rect x="-25" y="75" width="50" height="3" rx="1" fill="#D4AF37" opacity="0.4"/>
      <rect x="-20" y="55" width="40" height="20" rx="2" fill="#0f1f35" stroke="#D4AF37" stroke-width="0.5" opacity="0.5"/>
      <rect x="-17" y="58" width="34" height="14" rx="1" fill="#3B82F6" opacity="0.1"/>
      <circle cx="35" cy="-15" r="3" fill="#D4AF37" opacity="0.25" filter="url(#softGlow)"/>
      <circle cx="42" cy="5" r="2" fill="#D4AF37" opacity="0.15"/>
      <line x1="35" y1="-15" x2="42" y2="5" stroke="#D4AF37" stroke-width="0.5" opacity="0.15"/>
    </g>

    <g transform="translate(400, 200)" opacity="0.95">
      <circle cx="0" cy="0" r="32" fill="#1a2d4a" stroke="#D4AF37" stroke-width="1.2" opacity="0.85"/>
      <path d="M-40,42 Q-42,65 -34,110 L34,110 Q42,65 40,42 Q22,32 0,30 Q-22,32 -40,42Z" fill="#1a2d4a" stroke="#D4AF37" stroke-width="0.8" opacity="0.75"/>
      <path d="M35,42 Q50,30 55,15 L58,15" fill="none" stroke="#D4AF37" stroke-width="1" opacity="0.5"/>
      <rect x="45" y="-20" width="55" height="35" rx="4" fill="none" stroke="#D4AF37" stroke-width="0.8" opacity="0.3"/>
      <rect x="49" y="-16" width="47" height="27" rx="2" fill="#D4AF37" opacity="0.04"/>
      <polyline points="52,-5 58,-10 64,-3 70,-12 76,-6 82,-8" fill="none" stroke="#D4AF37" stroke-width="1" opacity="0.4"/>
      <circle cx="52" cy="-5" r="1.5" fill="#D4AF37" opacity="0.5"/>
      <circle cx="64" cy="-3" r="1.5" fill="#D4AF37" opacity="0.5"/>
      <circle cx="76" cy="-6" r="1.5" fill="#D4AF37" opacity="0.5"/>
      <circle cx="-10" cy="-40" r="4" fill="#D4AF37" opacity="0.2" filter="url(#softGlow)"/>
      <circle cx="10" cy="-45" r="2.5" fill="#D4AF37" opacity="0.15"/>
      <circle cx="25" cy="-35" r="2" fill="#D4AF37" opacity="0.12"/>
      <line x1="-10" y1="-40" x2="10" y2="-45" stroke="#D4AF37" stroke-width="0.5" opacity="0.12"/>
      <line x1="10" y1="-45" x2="25" y2="-35" stroke="#D4AF37" stroke-width="0.5" opacity="0.1"/>
    </g>

    <g transform="translate(600, 230)" opacity="0.85">
      <circle cx="0" cy="0" r="26" fill="#1a2d4a" stroke="#D4AF37" stroke-width="0.8" opacity="0.75"/>
      <path d="M-32,36 Q-35,55 -28,95 L28,95 Q35,55 32,36 Q18,28 0,26 Q-18,28 -32,36Z" fill="#1a2d4a" stroke="#D4AF37" stroke-width="0.7" opacity="0.65"/>
      <rect x="-18" y="50" width="28" height="38" rx="3" fill="#0f1f35" stroke="#D4AF37" stroke-width="0.6" opacity="0.5"/>
      <rect x="-15" y="53" width="22" height="32" rx="2" fill="#3B82F6" opacity="0.06"/>
      <line x1="-12" y1="60" x2="4" y2="60" stroke="#D4AF37" stroke-width="0.5" opacity="0.2"/>
      <line x1="-12" y1="65" x2="2" y2="65" stroke="#D4AF37" stroke-width="0.5" opacity="0.15"/>
      <line x1="-12" y1="70" x2="5" y2="70" stroke="#D4AF37" stroke-width="0.5" opacity="0.2"/>
    </g>

    <path d="M215,260 Q300,220 365,240" fill="none" stroke="#D4AF37" stroke-width="0.8" opacity="0.15"/>
    <path d="M435,250 Q520,230 565,265" fill="none" stroke="#D4AF37" stroke-width="0.8" opacity="0.12"/>
    <path d="M215,280 Q400,350 565,280" fill="none" stroke="#D4AF37" stroke-width="0.5" opacity="0.08"/>

    <circle cx="290" cy="235" r="2" fill="#D4AF37" opacity="0.3" filter="url(#glow)"/>
    <circle cx="500" cy="240" r="2" fill="#D4AF37" opacity="0.25" filter="url(#glow)"/>
    <circle cx="400" cy="320" r="1.5" fill="#D4AF37" opacity="0.15"/>

    <line x1="100" y1="460" x2="700" y2="460" stroke="#D4AF37" stroke-width="1" opacity="0.2"/>

    <circle cx="160" cy="460" r="8" fill="#0A1628" stroke="#D4AF37" stroke-width="1.5" opacity="0.7"/>
    <circle cx="160" cy="460" r="3" fill="#D4AF37" opacity="0.6"/>
    <text x="160" y="490" font-family="Inter, Helvetica, Arial, sans-serif" font-size="11" fill="#D4AF37" text-anchor="middle" opacity="0.6" font-weight="500">Idée</text>

    <circle cx="310" cy="460" r="10" fill="#0A1628" stroke="#D4AF37" stroke-width="1.5" opacity="0.8"/>
    <circle cx="310" cy="460" r="4" fill="url(#gold)" opacity="0.8"/>
    <text x="310" y="490" font-family="Inter, Helvetica, Arial, sans-serif" font-size="11" fill="#D4AF37" text-anchor="middle" opacity="0.7" font-weight="500">Fondation</text>

    <circle cx="460" cy="460" r="10" fill="#0A1628" stroke="#D4AF37" stroke-width="1.5" opacity="0.8"/>
    <circle cx="460" cy="460" r="4" fill="url(#gold)" opacity="0.8"/>
    <text x="460" y="490" font-family="Inter, Helvetica, Arial, sans-serif" font-size="11" fill="#D4AF37" text-anchor="middle" opacity="0.7" font-weight="500">Croissance</text>

    <circle cx="620" cy="460" r="12" fill="#0A1628" stroke="#D4AF37" stroke-width="2" opacity="0.9" filter="url(#glow)"/>
    <circle cx="620" cy="460" r="5" fill="url(#gold)" opacity="1"/>
    <text x="620" y="490" font-family="Inter, Helvetica, Arial, sans-serif" font-size="11" fill="#D4AF37" text-anchor="middle" opacity="0.8" font-weight="600">Vision</text>

    <line x1="168" y1="460" x2="300" y2="460" stroke="url(#gold)" stroke-width="1.5" opacity="0.15"/>
    <line x1="320" y1="460" x2="450" y2="460" stroke="url(#gold)" stroke-width="1.5" opacity="0.2"/>
    <line x1="470" y1="460" x2="608" y2="460" stroke="url(#gold)" stroke-width="1.5" opacity="0.25"/>

    <text x="680" y="80" font-family="monospace" font-size="14" fill="#3B82F6" opacity="0.12">{ }</text>
    <text x="50" y="520" font-family="monospace" font-size="12" fill="#3B82F6" opacity="0.08">&lt;/&gt;</text>
    <text x="720" y="380" font-family="monospace" font-size="10" fill="#D4AF37" opacity="0.08">01101</text>

    <text x="400" y="565" font-family="Inter, Helvetica, Arial, sans-serif" font-size="10" font-weight="700" letter-spacing="4" fill="#D4AF37" text-anchor="middle" opacity="0.2">CORTEX STUDIO</text>
  </g>
</svg>
